General
Complete name                    : Enduko Emo Video song 720p ~pOdugu~\Enduko Emo 720p ~pOdugu~.mp4
Format                           : MPEG-4
Format profile                   : Base Media
Codec ID                         : isom
File size                        : 39.2 MiB
Duration                         : 5mn 27s
Overall bit rate                 : 1 002 Kbps
Encoded date                     : UTC 2011-09-25 10:37:55
Tagged date                      : UTC 2011-09-25 10:37:55

Video
ID                               : 1
Format                           : AVC
Format/Info                      : Advanced Video Codec
Format profile                   : High@L4.1
Format settings, CABAC           : Yes
Format settings, ReFrames        : 4 frames
Format settings, GOP             : M=2, N=32
Codec ID                         : avc1
Codec ID/Info                    : Advanced Video Coding
Duration                         : 5mn 27s
Bit rate mode                    : Variable
Bit rate                         : 951 Kbps
Maximum bit rate                 : 2 416 Kbps
Width                            : 1 280 pixels
Height                           : 544 pixels
Display aspect ratio             : 2.35:1
Frame rate mode                  : Constant
Frame rate                       : 24.000 fps
Color space                      : YUV
Chroma subsampling               : 4:2:0
Bit depth                        : 8 bits
Scan type                        : Progressive
Bits/(Pixel*Frame)               : 0.057
Stream size                      : 37.2 MiB (95%)
Writing library                  : x264 core 116 r2074 2641b9e
Encoding settings                : cabac=1 / ref=4 / deblock=1:-1:-1 / analyse=0x3:0x113 / me=umh / subme=7 / psy=1 / psy_rd=1.00:0.00 / mixed_ref=1 / me_range=16 / chroma_me=1 / trellis=2 / 8x8dct=1 / cqm=0 / deadzone=21,11 / fast_pskip=1 / chroma_qp_offset=-2 / threads=6 / sliced_threads=0 / nr=0 / decimate=1 / interlaced=0 / bluray_compat=0 / constrained_intra=0 / bframes=3 / b_pyramid=2 / b_adapt=2 / b_bias=0 / direct=3 / weightb=1 / open_gop=0 / weightp=2 / keyint=250 / keyint_min=24 / scenecut=40 / intra_refresh=0 / rc_lookahead=40 / rc=2pass / mbtree=1 / bitrate=951 / ratetol=1.0 / qcomp=0.60 / qpmin=10 / qpmax=51 / qpstep=4 / cplxblur=20.0 / qblur=0.5 / vbv_maxrate=50000 / vbv_bufsize=50000 / nal_hrd=none / ip_ratio=1.40 / aq=1:1.00
Encoded date                     : UTC 2011-09-25 10:37:55
Tagged date                      : UTC 2011-09-25 10:37:56

Audio
ID                               : 2
Format                           : AAC
Format/Info                      : Advanced Audio Codec
Format profile                   : HE-AAC / LC
Codec ID                         : 40
Duration                         : 5mn 27s
Bit rate mode                    : Variable
Bit rate                         : 48.0 Kbps
Maximum bit rate                 : 53.1 Kbps
Channel(s)                       : 2 channels
Channel positions                : Front: L R
Sampling rate                    : 48.0 KHz / 24.0 KHz
Compression mode                 : Lossy
Stream size                      : 1.88 MiB (5%)
Encoded date                     : UTC 2011-09-25 10:37:56
Tagged date                      : UTC 2011-09-25 10:37:56

